# xmcd CD database file
#
# Track frame offsets:
#	150
#	31322
#	66909
#	93657
#	119466
#	138156
#	162354
#
# Disc length: 2450 seconds
#
# Revision: 0
# Processed by: cddbd v1.5.2PL0 Copyright (c) Steve Scherf et al.
# Submitted via: CDex 1.70beta2
#
DISCID=5d099007
DTITLE=プライベートジュネス 月子 - ノスタルジックヒーロー 横浜市電の歌
DYEAR=2016
DGENRE=Jazz
TTITLE0=ノスタルジックヒーロー
TTITLE1=子猫～この街
TTITLE2=私の好きなズーラシア
TTITLE3=ムササビストーリー
TTITLE4=風の通り道
TTITLE5=ＭＯＲＩ
TTITLE6=ノスタルジックヒーロー（ボーナストラック）
EXTD=YEAR: 2016
EXTT0=
EXTT1=
EXTT2=
EXTT3=
EXTT4=
EXTT5=
EXTT6=
PLAYORDER=
